<svg width="345" height="137" viewBox="0 0 345 137" fill="none" xmlns="http://www.w3.org/2000/svg">
<path d="M10.893 81V31.3H32.406C36.8553 31.3 40.6893 32.0337 43.908 33.501C47.1267 34.921 49.6117 36.98 51.363 39.678C53.1143 42.376 53.99 45.5947 53.99 49.334C53.99 53.026 53.1143 56.221 51.363 58.919C49.6117 61.5697 47.1267 63.605 43.908 65.025C40.6893 66.445 36.8553 67.155 32.406 67.155H17.283L22.395 62.114V81H10.893ZM42.488 81L30.063 62.966H42.346L54.913 81H42.488ZM22.395 63.392L17.283 57.996H31.767C35.317 57.996 37.9677 57.2387 39.719 55.724C41.4703 54.162 42.346 52.032 42.346 49.334C42.346 46.5887 41.4703 44.4587 39.719 42.944C37.9677 41.4293 35.317 40.672 31.767 40.672H17.283L22.395 35.205V63.392ZM81.279 81.568C76.9243 81.568 73.0903 80.716 69.777 79.012C66.511 77.308 63.9786 74.9887 62.18 72.054C60.3813 69.072 59.482 65.6877 59.482 61.901C59.482 58.067 60.3576 54.6827 62.109 51.748C63.9076 48.766 66.3453 46.4467 69.422 44.79C72.4986 43.086 75.9776 42.234 79.859 42.234C83.5983 42.234 86.959 43.0387 89.941 44.648C92.9703 46.21 95.3606 48.482 97.112 51.464C98.8633 54.3987 99.739 57.925 99.739 62.043C99.739 62.469 99.7153 62.966 99.668 63.534C99.6206 64.0547 99.5733 64.5517 99.526 65.025H68.499V58.564H93.704L89.444 60.481C89.444 58.493 89.0416 56.7653 88.237 55.298C87.4323 53.8307 86.32 52.6947 84.9 51.89C83.48 51.038 81.8233 50.612 79.93 50.612C78.0366 50.612 76.3563 51.038 74.889 51.89C73.469 52.6947 72.3566 53.8543 71.552 55.369C70.7473 56.8363 70.345 58.5877 70.345 60.623V62.327C70.345 64.4097 70.7946 66.2557 71.694 67.865C72.6406 69.427 73.9423 70.634 75.599 71.486C77.303 72.2907 79.291 72.693 81.563 72.693C83.5983 72.693 85.3733 72.3853 86.888 71.77C88.45 71.1547 89.87 70.2317 91.148 69.001L97.041 75.391C95.2896 77.379 93.0886 78.9173 90.438 80.006C87.7873 81.0473 84.7343 81.568 81.279 81.568ZM119.964 81.568C116.698 81.568 113.55 81.1893 110.521 80.432C107.539 79.6273 105.172 78.6333 103.421 77.45L107.113 69.498C108.864 70.5867 110.923 71.486 113.29 72.196C115.704 72.8587 118.071 73.19 120.39 73.19C122.946 73.19 124.745 72.8823 125.786 72.267C126.875 71.6517 127.419 70.7997 127.419 69.711C127.419 68.8117 126.993 68.149 126.141 67.723C125.336 67.2497 124.248 66.8947 122.875 66.658C121.502 66.4213 119.988 66.1847 118.331 65.948C116.722 65.7113 115.089 65.4037 113.432 65.025C111.775 64.599 110.261 63.9837 108.888 63.179C107.515 62.3743 106.403 61.2857 105.551 59.913C104.746 58.5403 104.344 56.7653 104.344 54.588C104.344 52.174 105.03 50.044 106.403 48.198C107.823 46.352 109.858 44.9083 112.509 43.867C115.16 42.7783 118.331 42.234 122.023 42.234C124.626 42.234 127.277 42.518 129.975 43.086C132.673 43.654 134.921 44.4823 136.72 45.571L133.028 53.452C131.182 52.3633 129.312 51.6297 127.419 51.251C125.573 50.825 123.774 50.612 122.023 50.612C119.562 50.612 117.763 50.9433 116.627 51.606C115.491 52.2687 114.923 53.1207 114.923 54.162C114.923 55.1087 115.325 55.8187 116.13 56.292C116.982 56.7653 118.094 57.144 119.467 57.428C120.84 57.712 122.331 57.9723 123.94 58.209C125.597 58.3983 127.253 58.706 128.91 59.132C130.567 59.558 132.058 60.1733 133.383 60.978C134.756 61.7353 135.868 62.8003 136.72 64.173C137.572 65.4983 137.998 67.2497 137.998 69.427C137.998 71.7937 137.288 73.9 135.868 75.746C134.448 77.5447 132.389 78.9647 129.691 80.006C127.04 81.0473 123.798 81.568 119.964 81.568ZM163.008 81.568C158.937 81.568 155.316 80.716 152.145 79.012C149.021 77.308 146.536 74.9887 144.69 72.054C142.891 69.072 141.992 65.6877 141.992 61.901C141.992 58.067 142.891 54.6827 144.69 51.748C146.536 48.766 149.021 46.4467 152.145 44.79C155.316 43.086 158.937 42.234 163.008 42.234C167.031 42.234 170.628 43.086 173.8 44.79C176.971 46.4467 179.456 48.7423 181.255 51.677C183.053 54.6117 183.953 58.0197 183.953 61.901C183.953 65.6877 183.053 69.072 181.255 72.054C179.456 74.9887 176.971 77.308 173.8 79.012C170.628 80.716 167.031 81.568 163.008 81.568ZM163.008 72.48C164.854 72.48 166.51 72.054 167.978 71.202C169.445 70.35 170.605 69.143 171.457 67.581C172.309 65.9717 172.735 64.0783 172.735 61.901C172.735 59.6763 172.309 57.783 171.457 56.221C170.605 54.659 169.445 53.452 167.978 52.6C166.51 51.748 164.854 51.322 163.008 51.322C161.162 51.322 159.505 51.748 158.038 52.6C156.57 53.452 155.387 54.659 154.488 56.221C153.636 57.783 153.21 59.6763 153.21 61.901C153.21 64.0783 153.636 65.9717 154.488 67.581C155.387 69.143 156.57 70.35 158.038 71.202C159.505 72.054 161.162 72.48 163.008 72.48ZM191.356 81V28.318H202.432V81H191.356ZM228.829 81.568C225.657 81.568 222.817 80.9527 220.309 79.722C217.847 78.4913 215.93 76.6217 214.558 74.113C213.185 71.557 212.499 68.3147 212.499 64.386V42.802H223.575V62.753C223.575 65.9243 224.237 68.2673 225.563 69.782C226.935 71.2493 228.852 71.983 231.314 71.983C233.018 71.983 234.532 71.628 235.858 70.918C237.183 70.1607 238.224 69.0247 238.982 67.51C239.739 65.948 240.118 64.0073 240.118 61.688V42.802H251.194V81H240.686V70.492L242.603 73.545C241.325 76.1957 239.431 78.2073 236.923 79.58C234.461 80.9053 231.763 81.568 228.829 81.568ZM277.075 81.568C272.578 81.568 269.075 80.432 266.567 78.16C264.058 75.8407 262.804 72.409 262.804 67.865V34.353H273.88V67.723C273.88 69.3323 274.306 70.5867 275.158 71.486C276.01 72.338 277.169 72.764 278.637 72.764C280.388 72.764 281.879 72.2907 283.11 71.344L286.092 79.154C284.956 79.9587 283.583 80.574 281.974 81C280.412 81.3787 278.779 81.568 277.075 81.568ZM256.911 52.174V43.654H283.394V52.174H256.911ZM310.088 81.568C305.733 81.568 301.899 80.716 298.586 79.012C295.32 77.308 292.787 74.9887 290.989 72.054C289.19 69.072 288.291 65.6877 288.291 61.901C288.291 58.067 289.166 54.6827 290.918 51.748C292.716 48.766 295.154 46.4467 298.231 44.79C301.307 43.086 304.786 42.234 308.668 42.234C312.407 42.234 315.768 43.0387 318.75 44.648C321.779 46.21 324.169 48.482 325.921 51.464C327.672 54.3987 328.548 57.925 328.548 62.043C328.548 62.469 328.524 62.966 328.477 63.534C328.429 64.0547 328.382 64.5517 328.335 65.025H297.308V58.564H322.513L318.253 60.481C318.253 58.493 317.85 56.7653 317.046 55.298C316.241 53.8307 315.129 52.6947 313.709 51.89C312.289 51.038 310.632 50.612 308.739 50.612C306.845 50.612 305.165 51.038 303.698 51.89C302.278 52.6947 301.165 53.8543 300.361 55.369C299.556 56.8363 299.154 58.5877 299.154 60.623V62.327C299.154 64.4097 299.603 66.2557 300.503 67.865C301.449 69.427 302.751 70.634 304.408 71.486C306.112 72.2907 308.1 72.693 310.372 72.693C312.407 72.693 314.182 72.3853 315.697 71.77C317.259 71.1547 318.679 70.2317 319.957 69.001L325.85 75.391C324.098 77.379 321.897 78.9173 319.247 80.006C316.596 81.0473 313.543 81.568 310.088 81.568Z" fill="#737373"/>
<path d="M147.66 106V92H153.72C154.973 92 156.053 92.2067 156.96 92.62C157.867 93.02 158.567 93.6 159.06 94.36C159.553 95.12 159.8 96.0267 159.8 97.08C159.8 98.12 159.553 99.02 159.06 99.78C158.567 100.54 157.867 101.127 156.96 101.54C156.053 101.94 154.973 102.14 153.72 102.14H149.46L150.9 100.68V106H147.66ZM150.9 101.04L149.46 99.5H153.54C154.54 99.5 155.287 99.2867 155.78 98.86C156.273 98.4333 156.52 97.84 156.52 97.08C156.52 96.3067 156.273 95.7067 155.78 95.28C155.287 94.8533 154.54 94.64 153.54 94.64H149.46L150.9 93.1V101.04ZM169.108 106.24C168.002 106.24 166.975 106.06 166.028 105.7C165.095 105.34 164.282 104.833 163.588 104.18C162.908 103.527 162.375 102.76 161.988 101.88C161.615 101 161.428 100.04 161.428 99C161.428 97.96 161.615 97 161.988 96.12C162.375 95.24 162.915 94.4733 163.608 93.82C164.302 93.1667 165.115 92.66 166.048 92.3C166.982 91.94 167.995 91.76 169.088 91.76C170.195 91.76 171.208 91.94 172.128 92.3C173.062 92.66 173.868 93.1667 174.548 93.82C175.242 94.4733 175.782 95.24 176.168 96.12C176.555 96.9867 176.748 97.9467 176.748 99C176.748 100.04 176.555 101.007 176.168 101.9C175.782 102.78 175.242 103.547 174.548 104.2C173.868 104.84 173.062 105.34 172.128 105.7C171.208 106.06 170.202 106.24 169.108 106.24ZM169.088 103.48C169.715 103.48 170.288 103.373 170.808 103.16C171.342 102.947 171.808 102.64 172.208 102.24C172.608 101.84 172.915 101.367 173.128 100.82C173.355 100.273 173.468 99.6667 173.468 99C173.468 98.3333 173.355 97.7267 173.128 97.18C172.915 96.6333 172.608 96.16 172.208 95.76C171.822 95.36 171.362 95.0533 170.828 94.84C170.295 94.6267 169.715 94.52 169.088 94.52C168.462 94.52 167.882 94.6267 167.348 94.84C166.828 95.0533 166.368 95.36 165.968 95.76C165.568 96.16 165.255 96.6333 165.028 97.18C164.815 97.7267 164.708 98.3333 164.708 99C164.708 99.6533 164.815 100.26 165.028 100.82C165.255 101.367 165.562 101.84 165.948 102.24C166.348 102.64 166.815 102.947 167.348 103.16C167.882 103.373 168.462 103.48 169.088 103.48ZM183.783 106.24C182.663 106.24 181.59 106.093 180.563 105.8C179.537 105.493 178.71 105.1 178.083 104.62L179.183 102.18C179.783 102.607 180.49 102.96 181.303 103.24C182.13 103.507 182.963 103.64 183.803 103.64C184.443 103.64 184.957 103.58 185.343 103.46C185.743 103.327 186.037 103.147 186.223 102.92C186.41 102.693 186.503 102.433 186.503 102.14C186.503 101.767 186.357 101.473 186.063 101.26C185.77 101.033 185.383 100.853 184.903 100.72C184.423 100.573 183.89 100.44 183.303 100.32C182.73 100.187 182.15 100.027 181.563 99.84C180.99 99.6533 180.463 99.4133 179.983 99.12C179.503 98.8267 179.11 98.44 178.803 97.96C178.51 97.48 178.363 96.8667 178.363 96.12C178.363 95.32 178.577 94.5933 179.003 93.94C179.443 93.2733 180.097 92.7467 180.963 92.36C181.843 91.96 182.943 91.76 184.263 91.76C185.143 91.76 186.01 91.8667 186.863 92.08C187.717 92.28 188.47 92.5867 189.123 93L188.123 95.46C187.47 95.0867 186.817 94.8133 186.163 94.64C185.51 94.4533 184.87 94.36 184.243 94.36C183.617 94.36 183.103 94.4333 182.703 94.58C182.303 94.7267 182.017 94.92 181.843 95.16C181.67 95.3867 181.583 95.6533 181.583 95.96C181.583 96.32 181.73 96.6133 182.023 96.84C182.317 97.0533 182.703 97.2267 183.183 97.36C183.663 97.4933 184.19 97.6267 184.763 97.76C185.35 97.8933 185.93 98.0467 186.503 98.22C187.09 98.3933 187.623 98.6267 188.103 98.92C188.583 99.2133 188.97 99.6 189.263 100.08C189.57 100.56 189.723 101.167 189.723 101.9C189.723 102.687 189.503 103.407 189.063 104.06C188.623 104.713 187.963 105.24 187.083 105.64C186.217 106.04 185.117 106.24 183.783 106.24Z" fill="#D4AC0A"/>
</svg>
